<svg width="220" height="74" viewBox="0 0 220 74" fill="none" xmlns="http://www.w3.org/2000/svg">
<rect width="74" height="74" rx="30" fill="#202229"/>
<path d="M38.3588 36.5C38.3588 40.036 35.3683 42.9024 31.6794 42.9024C27.9905 42.9024 25 40.036 25 36.5C25 32.964 27.9905 30.0976 31.6794 30.0976C35.3683 30.0976 38.3588 32.964 38.3588 36.5Z" fill="#EDEFFF"/>
<path d="M36.6412 44L36.6412 29L50 36.5L36.6412 44Z" fill="#EDEFFF"/>
<path d="M87.606 44V29.04H97.924V31.02H90.07V35.288H97.088V37.246H90.07V42.02H97.924V44H87.606ZM107.648 44L105.14 40.392L104.568 39.402L103.996 40.392L101.554 44H98.9577L103.292 37.906L99.2877 32.274H102.126L104.304 35.442L104.876 36.454L105.448 35.442L107.582 32.274H110.156L106.152 37.906L110.486 44H107.648ZM114.384 48.84H112.03V32.274H114.384V33.682C115.132 32.582 116.232 31.966 117.574 31.966C120.676 31.966 122.546 34.276 122.546 38.104C122.546 42.086 120.632 44.286 117.574 44.286C116.232 44.286 115.132 43.736 114.384 42.658V48.84ZM117.288 33.946C115.396 33.946 114.384 35.42 114.384 38.104C114.384 40.788 115.44 42.306 117.288 42.306C119.136 42.306 120.148 40.81 120.148 38.104C120.148 35.442 119.092 33.946 117.288 33.946ZM124.834 44V28.16H127.188V44H124.834ZM134.94 44.286C131.53 44.286 129.462 41.976 129.462 38.148C129.462 34.166 131.596 31.966 134.94 31.966C138.35 31.966 140.418 34.32 140.418 38.148C140.418 42.108 138.284 44.286 134.94 44.286ZM134.94 42.306C136.942 42.306 138.02 40.854 138.02 38.148C138.02 35.464 136.92 33.946 134.94 33.946C132.96 33.946 131.86 35.42 131.86 38.148C131.86 40.81 132.96 42.306 134.94 42.306ZM142.709 44V32.274H145.063V34.012C145.833 32.604 147.043 31.966 148.407 31.966C148.869 31.966 149.309 32.076 149.529 32.274V34.342C149.177 34.232 148.759 34.188 148.275 34.188C146.031 34.188 145.063 35.552 145.063 37.598V44H142.709ZM161.322 40.172C160.684 42.9 158.66 44.286 155.91 44.286C152.456 44.286 150.344 41.976 150.344 38.148C150.344 34.166 152.456 31.966 155.8 31.966C159.188 31.966 161.234 34.254 161.234 38.016V38.588H152.742C152.874 40.986 153.996 42.328 155.91 42.328C157.406 42.328 158.462 41.624 158.858 40.172H161.322ZM155.8 33.924C154.106 33.924 153.094 35.002 152.808 36.982H158.792C158.506 35.002 157.472 33.924 155.8 33.924ZM168.086 44V29.04H171.408L175.632 39.402L176.138 40.986L176.644 39.402L180.824 29.04H184.058V44H181.594L181.66 31.878L180.582 35.09L176.952 44H175.192L171.54 35.068L170.484 31.944L170.55 44H168.086ZM192.002 44.286C188.592 44.286 186.524 41.976 186.524 38.148C186.524 34.166 188.658 31.966 192.002 31.966C195.412 31.966 197.48 34.32 197.48 38.148C197.48 42.108 195.346 44.286 192.002 44.286ZM192.002 42.306C194.004 42.306 195.082 40.854 195.082 38.148C195.082 35.464 193.982 33.946 192.002 33.946C190.022 33.946 188.922 35.42 188.922 38.148C188.922 40.81 190.022 42.306 192.002 42.306ZM199.772 44V32.274H202.126V34.012C202.896 32.604 204.106 31.966 205.47 31.966C205.932 31.966 206.372 32.076 206.592 32.274V34.342C206.24 34.232 205.822 34.188 205.338 34.188C203.094 34.188 202.126 35.552 202.126 37.598V44H199.772ZM218.385 40.172C217.747 42.9 215.723 44.286 212.973 44.286C209.519 44.286 207.407 41.976 207.407 38.148C207.407 34.166 209.519 31.966 212.863 31.966C216.251 31.966 218.297 34.254 218.297 38.016V38.588H209.805C209.937 40.986 211.059 42.328 212.973 42.328C214.469 42.328 215.525 41.624 215.921 40.172H218.385ZM212.863 33.924C211.169 33.924 210.157 35.002 209.871 36.982H215.855C215.569 35.002 214.535 33.924 212.863 33.924Z" fill="#202229"/>
</svg>
