<svg width="71.725464" height="25.233398" viewBox="0 0 71.7255 25.2334" fill="none" xmlns="http://www.w3.org/2000/svg" xmlns:xlink="http://www.w3.org/1999/xlink">
	<desc>
			Created with Pixso.
	</desc>
	<defs/>
	<path id="zwilt" d="M43.69 7.02C44.8 7.02 45.71 6.7 46.42 6.06C47.13 5.4 47.49 4.55 47.49 3.51C47.49 2.47 47.13 1.63 46.42 0.99C45.71 0.33 44.8 0 43.69 0C42.58 0 41.67 0.33 40.96 0.99C40.24 1.63 39.89 2.47 39.89 3.51C39.89 4.55 40.24 5.4 40.96 6.06C41.67 6.7 42.58 7.02 43.69 7.02ZM55.67 24.66C53.68 24.66 52.11 24.06 50.96 22.84C49.83 21.63 49.27 19.96 49.27 17.83L49.27 0.13L56.33 0.13L56.33 17.64C56.33 18.21 56.45 18.66 56.68 18.99C56.93 19.3 57.25 19.46 57.65 19.46L58.25 19.46L57.81 24.66L55.67 24.66ZM71.72 23.64L70.43 19.43C69.7 19.78 69.08 19.96 68.58 19.96C68.12 19.96 67.75 19.78 67.48 19.43C67.23 19.05 67.1 18.54 67.1 17.9L67.1 15.38L70.65 15.38L70.65 10.08L67.1 10.08L67.1 4.97L60.85 4.97L60.6 10.08L58.28 10.08L58.28 15.38L60.04 15.38L60.04 17.9C60.04 20.18 60.68 21.97 61.95 23.27C63.25 24.58 65.02 25.23 67.26 25.23C68.83 25.23 70.32 24.7 71.72 23.64ZM0 24.66L0 21.35L4.86 15.38L0.37 15.38L0.37 10.08L13.03 10.08L13.03 13.39L8.16 19.36L13.4 19.36L13.4 24.66L0 24.66ZM18.72 24.66L13.32 10.08L20.98 10.08L22.62 16.47L24.85 10.08L27.7 10.08L29.93 16.47L31.57 10.08L39.23 10.08L33.83 24.66L27.89 24.66L26.29 20.19L24.66 24.66L18.72 24.66ZM40.17 10.08L40.17 24.66L47.24 24.66L47.24 10.08L40.17 10.08Z" fill="#FFFFFF" fill-opacity="1.000000" fill-rule="evenodd"/>
</svg>
